<svg id="Business" height="512" viewBox="0 0 64 64" width="512" xmlns="http://www.w3.org/2000/svg"><path d="m11 29h3.382l1.723 3.447a1 1 0 0 0 .895.553h.019a1 1 0 0 0 .891-.586l2.948-6.484a9.35 9.35 0 0 0 2.284 0l2.948 6.484a1 1 0 0 0 .891.586h.019a1 1 0 0 0 .895-.553l1.723-3.447h3.382a1 1 0 0 0 .79-1.614l-3.99-5.139a10 10 0 1 0 -15.592 0l-3.998 5.139a1 1 0 0 0 .79 1.614zm18-2a1 1 0 0 0 -.895.553l-1.062 2.125-1.9-4.19a9.993 9.993 0 0 0 3.245-1.8l2.568 3.312zm-7-19a8 8 0 1 1 -8 8 8.009 8.009 0 0 1 8-8zm-6.383 15.69a9.993 9.993 0 0 0 3.245 1.8l-1.9 4.19-1.062-2.127a1 1 0 0 0 -.9-.553h-1.956z"/><path d="m22 22a6 6 0 1 0 -6-6 6.006 6.006 0 0 0 6 6zm0-10a4 4 0 1 1 -4 4 4 4 0 0 1 4-4z"/><path d="m61 37h-12v-22.13a1.007 1.007 0 0 0 -.29-.71l-11.83-11.87a1.033 1.033 0 0 0 -.71-.29h-32.17a1 1 0 0 0 -1 1v56a1 1 0 0 0 1 1h39.38a11.99 11.99 0 0 0 18.62-10v-12a1 1 0 0 0 -1-1zm-24-31.75 8.72 8.75h-3.72a5 5 0 0 1 -5-5zm-32 52.75v-54h30v5a7.008 7.008 0 0 0 7 7h5v21h-8a1 1 0 0 0 -1 1v1h-.5a7.5 7.5 0 0 0 0 15h1.2a12.01 12.01 0 0 0 2.38 4zm32.5-15a3.52 3.52 0 0 0 -2.48 1.02 3.507 3.507 0 0 0 2.48 5.98h.5a12 12 0 0 0 .18 2h-.68a5.5 5.5 0 1 1 0-11h.5v2zm.5 2v3h-.5a1.5 1.5 0 0 1 -1.06-2.56 1.481 1.481 0 0 1 1.06-.44zm22 5a10 10 0 0 1 -20 0v-11h20z"/><path d="m52.543 35 .681-.737c-.366-.39-1.335-1.429-1.214-2.248.059-.4.407-.787 1.034-1.149a3.627 3.627 0 0 0 2.076-2.833c.165-2.012-1.726-3.628-1.942-3.806l-1.27 1.546c.276.226 1.289 1.244 1.219 2.1-.036.443-.4.869-1.085 1.264a3.661 3.661 0 0 0 -2.01 2.586c-.263 1.775 1.133 3.27 1.779 3.961z"/><path d="m58.543 35 .681-.737c-.366-.39-1.335-1.429-1.214-2.248.059-.4.407-.787 1.034-1.149a3.627 3.627 0 0 0 2.076-2.833c.165-2.012-1.726-3.628-1.942-3.806l-1.27 1.546c.276.226 1.289 1.244 1.219 2.1-.036.443-.4.869-1.085 1.264a3.661 3.661 0 0 0 -2.01 2.586c-.263 1.775 1.133 3.27 1.779 3.961z"/><path d="m7 35h14v2h-14z"/><path d="m7 39h5v2h-5z"/><path d="m7 43h21v2h-21z"/><path d="m7 47h21v2h-21z"/><path d="m7 51h13v2h-13z"/><path d="m14 39h16v2h-16z"/></svg>